#N canvas 299 51 773 622 10;
#X obj 405 590 ml.svm;
#X msg 511 444 add 1 \$1 \$2 \$3;
#X obj 511 413 spigot;
#X obj 511 225 pack 0 0 0;
#X msg 538 372 1;
#X msg 569 372 0;
#X obj 621 413 spigot;
#X msg 648 372 1;
#X msg 679 372 0;
#X obj 597 284 sel 1 2;
#X obj 590 311 t b b;
#X obj 648 321 t b b;
#X msg 621 444 add 2 \$1 \$2 \$3;
#X msg 474 299 0;
#X msg 365 175 train;
#X msg 409 433 clear;
#X obj 410 330 spigot;
#X msg 444 299 0;
#X msg 119 177 map;
#X msg 416 299 1;
#X obj 365 200 t a b;
#X obj 416 275 t b a b;
#X obj 511 252 t a a a;
#X obj 410 361 prepend map;
#X msg 555 287 0;
#X floatatom 205 360 5 0 0 0 MAPPED_GESTURE - -, f 5;
#X obj 511 181 inlet;
#X obj 551 181 inlet;
#X obj 591 181 inlet;
#X text 118 196 RECORD;
#X text 116 277 MODEL;
#X obj 205 396 outlet;
#X obj 120 138 bng 15 250 50 0 empty empty PANIC 17 7 0 10 -262144
-1 -1;
#X obj 119 161 bng 15 250 50 0 empty empty MAP 17 7 0 10 -262144 -1
-1;
#X obj 160 159 bng 15 250 50 0 empty empty TRAIN 17 7 0 10 -262144
-1 -1;
#X obj 119 214 bng 15 250 50 0 empty empty STOP 17 7 0 10 -262144 -1
-1;
#X floatatom 163 250 5 0 0 0 GESTURE - -, f 5;
#X obj 148 266 i;
#X obj 118 233 bng 15 250 50 0 empty empty START 17 7 0 10 -262144
-1 -1;
#X obj 118 292 bng 15 250 50 0 empty empty CLEAR 17 7 0 10 -262144
-1 -1;
#X obj 118 312 bng 15 250 50 0 empty empty SAVE 17 7 0 10 -262144 -1
-1;
#X obj 118 332 bng 15 250 50 0 empty empty LOAD 17 7 0 10 -262144 -1
-1;
#X msg 13 465 write /Users/balandinodidonato/Desktop/xthsense_dev-kit/waterVR/waterVR
;
#X msg 12 514 read /Users/balandinodidonato/Desktop/xthsense_dev-kit/waterVR/waterVR
;
#X obj 19 92 loadbang;
#X obj 19 114 t b b;
#X connect 0 0 25 0;
#X connect 1 0 0 0;
#X connect 2 0 1 0;
#X connect 3 0 22 0;
#X connect 4 0 2 1;
#X connect 5 0 2 1;
#X connect 6 0 12 0;
#X connect 7 0 6 1;
#X connect 8 0 6 1;
#X connect 9 0 10 0;
#X connect 9 1 11 0;
#X connect 10 0 4 0;
#X connect 10 1 8 0;
#X connect 11 0 7 0;
#X connect 11 1 5 0;
#X connect 12 0 0 0;
#X connect 13 0 2 1;
#X connect 13 0 6 1;
#X connect 14 0 20 0;
#X connect 15 0 0 0;
#X connect 16 0 23 0;
#X connect 17 0 16 1;
#X connect 18 0 21 0;
#X connect 19 0 16 1;
#X connect 20 0 0 0;
#X connect 20 1 17 0;
#X connect 21 0 19 0;
#X connect 21 1 0 0;
#X connect 21 2 13 0;
#X connect 22 0 2 0;
#X connect 22 1 6 0;
#X connect 22 2 16 0;
#X connect 23 0 0 0;
#X connect 24 0 16 1;
#X connect 24 0 2 1;
#X connect 24 0 6 0;
#X connect 25 0 31 0;
#X connect 26 0 3 0;
#X connect 27 0 3 1;
#X connect 28 0 3 2;
#X connect 32 0 24 0;
#X connect 33 0 18 0;
#X connect 34 0 14 0;
#X connect 35 0 13 0;
#X connect 36 0 37 1;
#X connect 37 0 9 0;
#X connect 38 0 37 0;
#X connect 39 0 15 0;
#X connect 41 0 43 0;
#X connect 42 0 0 0;
#X connect 43 0 0 0;
#X connect 44 0 45 0;
#X connect 45 0 33 0;
#X connect 45 1 41 0;
#X coords 0 -1 1 1 150 280 1 100 100;
