#N canvas 491 68 749 585 10;
#X obj 193 126 inlet~;
#X obj 540 122 inlet;
#X obj 611 122 inlet;
#X obj 683 122 inlet;
#X obj 116 519 dac~ 1 2;
#X obj 19 334 efx.gui.pdelay~ foo;
#X obj 243 126 inlet;
#X obj 347 126 inlet;
#X obj 425 126 inlet;
#X obj 243 159 abs;
#X obj 243 181 / 10000;
#X obj 19 308 *~;
#X obj 34 240 > 0.02;
#X msg 34 262 \$1 50;
#X obj 34 284 vline~;
#N canvas 265 73 223 322 pddelay-init 0;
#X obj 94 92 s foo/pdel.time;
#X obj 78 138 s foo/pdel.fact;
#X msg 94 70 27.03;
#X msg 78 115 63;
#X obj 62 181 s foo/pdel.depth;
#X msg 62 158 25;
#X obj 46 225 s foo/pdel.fdb;
#X msg 46 202 60.3;
#X obj 31 271 s foo/pdel.oct;
#X msg 31 248 1;
#X obj 31 44 t b b b b b;
#X obj 31 11 loadbang;
#X obj 96 15 bng 15 250 50 0 empty empty empty 17 7 0 10 -262144 -1
-1;
#X connect 2 0 0 0;
#X connect 3 0 1 0;
#X connect 5 0 4 0;
#X connect 7 0 6 0;
#X connect 9 0 8 0;
#X connect 10 0 9 0;
#X connect 10 1 7 0;
#X connect 10 2 5 0;
#X connect 10 3 3 0;
#X connect 10 4 2 0;
#X connect 11 0 10 0;
#X connect 12 0 10 0;
#X restore 19 129 pd pddelay-init;
#X obj 243 205 t f f;
#N canvas 307 305 249 175 audio 0;
#X msg 14 71 1;
#X obj 14 13 loadbang;
#X obj 14 45 t b b;
#X obj 14 132 outlet~;
#X obj 83 19 bng 15 250 50 0 empty empty empty 17 7 0 10 -262144 -1
-1;
#X msg 188 70 0;
#X obj 14 110 readsf~ 2;
#X msg 55 71 open waterVR.wav;
#X connect 0 0 6 0;
#X connect 1 0 2 0;
#X connect 2 0 0 0;
#X connect 2 1 7 0;
#X connect 4 0 2 0;
#X connect 5 0 6 0;
#X connect 6 0 3 0;
#X connect 6 2 2 0;
#X connect 7 0 6 0;
#X restore 19 150 pd audio;
#N canvas 247 228 477 471 AM 0;
#X obj 180 59 abs~;
#X obj 33 364 *~;
#X obj 90 360 *~;
#X obj 180 29 inlet~;
#X obj 180 81 snapshot~;
#X obj 213 59 bang~;
#X obj 180 256 vline~;
#X obj 180 202 *;
#X obj 283 200 *;
#X obj 283 256 vline~;
#X obj 376 200 *;
#X obj 376 256 vline~;
#X obj 151 359 *~;
#X obj 96 208 *~ 0.4;
#X msg 283 232 \$1 15;
#X msg 180 232 \$1 15;
#X msg 376 232 \$1 15;
#X obj 180 103 - 0.0211;
#X obj 338 58 abs;
#X obj 391 58 abs;
#X obj 338 82 / 10000;
#X obj 391 82 / 10000;
#X obj 180 128 t f f f;
#X obj 267 29 inlet;
#X obj 338 29 inlet;
#X obj 391 29 inlet;
#X obj 33 35 inlet~;
#X obj 33 415 outlet~;
#X obj 90 417 outlet~;
#X obj 267 57 abs;
#X obj 267 79 / 10000;
#X text 111 450 Balandino Di Donato - Integra Lab - 2016;
#X connect 0 0 4 0;
#X connect 1 0 27 0;
#X connect 2 0 28 0;
#X connect 3 0 0 0;
#X connect 4 0 17 0;
#X connect 5 0 4 0;
#X connect 6 0 1 1;
#X connect 7 0 15 0;
#X connect 8 0 14 0;
#X connect 9 0 2 1;
#X connect 10 0 16 0;
#X connect 11 0 12 1;
#X connect 12 0 27 0;
#X connect 12 0 28 0;
#X connect 13 0 12 0;
#X connect 14 0 9 0;
#X connect 15 0 6 0;
#X connect 16 0 11 0;
#X connect 17 0 22 0;
#X connect 18 0 20 0;
#X connect 19 0 21 0;
#X connect 20 0 8 1;
#X connect 21 0 10 1;
#X connect 22 0 7 0;
#X connect 22 1 8 0;
#X connect 22 2 10 0;
#X connect 23 0 29 0;
#X connect 24 0 18 0;
#X connect 25 0 19 0;
#X connect 26 0 1 0;
#X connect 26 0 2 0;
#X connect 26 0 13 0;
#X connect 29 0 30 0;
#X connect 30 0 7 1;
#X restore 116 478 pd AM ______________________________________________
;
#X text 247 102 Gyro X;
#X text 343 102 Gyro Y;
#X text 422 102 Gyro Z;
#X text 534 102 Acc X;
#X text 611 101 Acc Y;
#X text 685 103 Acc Z;
#X text 198 103 MMG;
#X obj 540 151 ml.lib-svm;
#N canvas 0 22 138 186 delay-mix-sttings 0;
#X obj 17 18 inlet;
#X obj 17 91 line;
#X obj 17 133 s foo/pdel.mix;
#X floatatom 17 113 5 0 0 0 - - -, f 5;
#X msg 61 69 100 100;
#X msg 17 69 0 100;
#X obj 17 43 sel 1 2;
#X connect 0 0 6 0;
#X connect 1 0 3 0;
#X connect 3 0 2 0;
#X connect 4 0 1 0;
#X connect 5 0 1 0;
#X connect 6 0 5 0;
#X connect 6 1 4 0;
#X restore 540 441 pd delay-mix-sttings;
#X text 225 552 Balandino Di Donato - Integra Lab - 2016;
#X text 13 16 WaterVR \, a patch which allows yout to interact with
water within a virtual environment using the XthSense device. For more
info please visit xth.io or contact Balandino Di Donato \, info@balandinodidonato.com
.;
#X connect 0 0 18 1;
#X connect 1 0 26 0;
#X connect 2 0 26 1;
#X connect 3 0 26 2;
#X connect 5 0 18 0;
#X connect 6 0 9 0;
#X connect 7 0 18 3;
#X connect 8 0 18 4;
#X connect 9 0 10 0;
#X connect 10 0 16 0;
#X connect 11 0 5 0;
#X connect 12 0 13 0;
#X connect 13 0 14 0;
#X connect 14 0 11 1;
#X connect 16 0 12 0;
#X connect 16 1 18 2;
#X connect 17 0 11 0;
#X connect 18 0 4 0;
#X connect 18 1 4 1;
#X connect 26 0 27 0;
